<svg width="70" height="45" viewBox="0 0 70 45" fill="none" xmlns="http://www.w3.org/2000/svg">
<path d="M43.9744 12.5215H39.1445C38.6276 12.5215 38.2069 12.9128 38.2069 13.3937V16.2579C38.2069 16.7388 38.6276 17.1301 39.1445 17.1301H39.958V31.523C39.958 32.0038 40.3786 32.3951 40.8956 32.3951H43.9744C44.4913 32.3951 44.912 32.0038 44.912 31.523V13.3933C44.912 12.9128 44.4913 12.5215 43.9744 12.5215Z" fill="white"/>
<path d="M0 22.816C0 28.2667 4.76715 32.7012 10.6267 32.7012C16.4862 32.7012 21.2533 28.2667 21.2533 22.816C21.2533 19.3632 19.3062 16.1574 16.1484 14.3704C18.0305 12.8801 19.1026 10.7171 19.1026 8.38449C19.103 4.03707 15.3006 0.5 10.6267 0.5C5.95273 0.5 2.1507 4.03707 2.1507 8.38449C2.1507 10.7171 3.2228 12.8798 5.1049 14.3704C1.94705 16.1574 0 19.3636 0 22.816ZM10.6267 11.9731C8.49964 11.9731 6.76922 10.3634 6.76922 8.38484C6.76922 6.40626 8.49964 4.79659 10.6267 4.79659C12.7537 4.79659 14.4841 6.40626 14.4841 8.38484C14.4841 10.3634 12.7537 11.9731 10.6267 11.9731ZM4.61852 22.816C4.61852 19.7343 7.31368 17.2272 10.6267 17.2272C13.9396 17.2272 16.6348 19.7343 16.6348 22.816C16.6348 25.8978 13.9396 28.4046 10.6267 28.4046C7.31406 28.4049 4.61852 25.8978 4.61852 22.816Z" fill="white"/>
<path d="M68.4264 12.8364H65.6831C65.1661 12.8364 64.7454 13.2277 64.7454 13.7086V14.8601C62.9772 13.7381 60.862 13.1243 58.7373 13.1243C52.8778 13.1243 48.1106 17.5588 48.1106 23.0094C48.1106 28.46 52.8778 32.8945 58.7373 32.8945C60.8616 32.8945 62.9768 32.2807 64.7454 31.1587V34.1712C64.7454 35.6945 64.0711 37.1847 62.8954 38.2599C61.7374 39.3186 60.2228 39.8898 58.6326 39.8624C55.3773 39.8105 52.7291 37.3038 52.7291 34.2746V34.1513C52.7291 33.6704 52.3085 33.2791 51.7915 33.2791H49.0482C48.5313 33.2791 48.1106 33.6704 48.1106 34.1513C48.1106 39.6175 52.8308 44.1068 58.6326 44.1594C58.6681 44.1597 58.7029 44.1597 58.7384 44.1597C61.5536 44.1597 64.204 43.1447 66.2115 41.2954C68.2445 39.4224 69.3644 36.9292 69.3644 34.2746V13.7086C69.364 13.2277 68.9437 12.8364 68.4264 12.8364ZM64.7454 23.0094C64.7454 26.0912 62.0503 28.5979 58.7373 28.5979C55.4243 28.5979 52.7291 26.0909 52.7291 23.0094C52.7291 19.928 55.4243 17.4205 58.7373 17.4205C62.0503 17.4205 64.7454 19.928 64.7454 23.0094Z" fill="white"/>
<path d="M43.1244 10.4728C44.7864 9.8324 45.5756 8.05996 44.8872 6.51393C44.1987 4.96791 42.2933 4.23375 40.6313 4.87415C38.9693 5.51455 38.18 7.28699 38.8685 8.83302C39.5569 10.379 41.4623 11.1132 43.1244 10.4728Z" fill="white"/>
<path d="M31.1034 8.95751C31.1038 6.35162 32.7135 5.81708 34.8634 5.81708C35.2271 5.81708 35.5217 5.54306 35.5217 5.20471V1.82722C35.5217 1.48887 35.2271 1.21484 34.8634 1.21484C29.1957 1.21484 26.1494 3.89217 26.1494 8.95751L26.149 12.7693H24.1676C23.6824 12.7693 23.2888 13.1354 23.2888 13.5868V16.5605C23.2888 17.0119 23.6824 17.3779 24.1676 17.3779H26.149V31.6766C26.149 32.0622 26.4849 32.3746 26.8994 32.3746H30.3522C30.7668 32.3746 31.1026 32.0622 31.1026 31.6766V17.3779H34.6689C35.1542 17.3779 35.5477 17.0119 35.5477 16.5605V13.5868C35.5477 13.1354 35.1542 12.7693 34.6689 12.7693H31.1026L31.1034 8.95751Z" fill="white"/>
</svg>
