<svg width="23" height="22" viewBox="0 0 23 22" fill="none" xmlns="http://www.w3.org/2000/svg">
<path d="M9.85385 7.04736L13.2474 7.04736" stroke="#4C57FF" stroke-width="1.46107" stroke-linecap="round" stroke-linejoin="round"/>
<path d="M13.253 7.12039C14.9805 8.32073 17.9558 11.8204 17.9558 14.4189C17.9558 17.0496 16.8538 19.1819 11.5248 19.1819C6.19577 19.1819 5.09384 17.0496 5.09384 14.4189C5.09384 11.8204 8.06906 8.32073 9.79658 7.12039C9.36641 6.29959 6.93828 5.01528 7.26904 3.99542C7.76764 2.45808 15.2403 2.39356 15.7752 3.99367C16.1154 5.01161 13.682 6.30136 13.253 7.12039Z" stroke="#4C57FF" stroke-width="1.46107" stroke-linecap="round" stroke-linejoin="round"/>
<path d="M11.4864 10.7054V9.65674" stroke="#4C57FF" stroke-width="1.46107" stroke-linecap="round" stroke-linejoin="round"/>
<path d="M13.2241 10.7043H10.6715C10.4237 10.7043 10.186 10.803 10.0107 10.9787C9.83543 11.1544 9.73697 11.3927 9.73697 11.6411C9.7355 11.8281 9.79074 12.0111 9.89536 12.1659C9.99997 12.3207 10.149 12.44 10.3228 12.508L12.6383 13.0883C12.8428 13.1674 13.013 13.3161 13.1192 13.5083C13.2255 13.7005 13.2609 13.924 13.2194 14.1398C13.1778 14.3555 13.0619 14.5498 12.8919 14.6885C12.722 14.8273 12.5087 14.9018 12.2895 14.8989H9.73697" stroke="#4C57FF" stroke-width="1.46107" stroke-linecap="round" stroke-linejoin="round"/>
<path d="M11.4788 15.9478V14.8992" stroke="#4C57FF" stroke-width="1.46107" stroke-linecap="round" stroke-linejoin="round"/>
</svg>
