<svg width="287" height="175" viewBox="0 0 287 175" fill="none" xmlns="http://www.w3.org/2000/svg">
<g filter="url(#filter0_b_4001_2146)">
<rect x="0.418335" width="247.468" height="155.583" rx="20" fill="#F3F5FF" fill-opacity="0.3"/>
<path d="M11.2832 25.93C11.2832 26.1313 11.2328 26.3242 11.1322 26.5088C11.0315 26.6891 10.8826 26.8401 10.6855 26.9617C10.4926 27.0834 10.2598 27.1526 9.98719 27.1693V27.6789H9.64747V27.1693C9.26581 27.1358 8.95545 27.0142 8.71639 26.8045C8.47732 26.5906 8.35569 26.32 8.3515 25.9929H8.96174C8.97851 26.1691 9.04352 26.3221 9.15676 26.4522C9.2742 26.5822 9.43777 26.664 9.64747 26.6975V25.1247C9.36647 25.0534 9.13999 24.98 8.96803 24.9045C8.79607 24.829 8.64928 24.7116 8.52765 24.5522C8.40602 24.3929 8.34521 24.179 8.34521 23.9105C8.34521 23.5708 8.46264 23.2898 8.69751 23.0675C8.93657 22.8452 9.25323 22.7215 9.64747 22.6964V22.1742H9.98719V22.6964C10.3437 22.7257 10.631 22.8411 10.8491 23.0424C11.0672 23.2395 11.193 23.4974 11.2265 23.8162H10.6163C10.5953 23.6694 10.5303 23.5373 10.4213 23.4198C10.3122 23.2982 10.1675 23.2185 9.98719 23.1808V24.7158C10.264 24.7871 10.4884 24.8605 10.6603 24.936C10.8365 25.0073 10.9833 25.1226 11.1007 25.282C11.2223 25.4414 11.2832 25.6574 11.2832 25.93ZM8.93028 23.8791C8.93028 24.0846 8.9911 24.2419 9.11273 24.3509C9.23435 24.46 9.4126 24.5501 9.64747 24.6214V23.1682C9.42938 23.1892 9.25532 23.2605 9.12531 23.3821C8.99529 23.4995 8.93028 23.6652 8.93028 23.8791ZM9.98719 26.7038C10.2137 26.6786 10.3898 26.5968 10.5156 26.4584C10.6457 26.32 10.7107 26.1544 10.7107 25.9614C10.7107 25.7559 10.6478 25.5987 10.5219 25.4896C10.3961 25.3764 10.2179 25.2862 9.98719 25.2191V26.7038ZM12.2587 23.7281C12.2881 23.3422 12.437 23.0403 12.7054 22.8222C12.9738 22.6041 13.3219 22.495 13.7497 22.495C14.0349 22.495 14.2803 22.5475 14.4858 22.6523C14.6955 22.753 14.8528 22.8914 14.9576 23.0675C15.0667 23.2437 15.1212 23.4429 15.1212 23.6652C15.1212 23.9252 15.0457 24.1496 14.8947 24.3383C14.7479 24.5271 14.555 24.6487 14.3159 24.7032V24.7347C14.5885 24.8018 14.8045 24.9339 14.9639 25.131C15.1233 25.3281 15.203 25.5861 15.203 25.9048C15.203 26.1439 15.1484 26.3599 15.0394 26.5528C14.9303 26.7415 14.7668 26.8904 14.5487 26.9995C14.3306 27.1085 14.0685 27.163 13.7623 27.163C13.3177 27.163 12.9528 27.0477 12.6676 26.817C12.3824 26.5822 12.2231 26.2508 12.1895 25.823H12.7431C12.7725 26.0747 12.8753 26.2802 13.0514 26.4396C13.2276 26.5989 13.4624 26.6786 13.756 26.6786C14.0496 26.6786 14.2719 26.6031 14.4229 26.4522C14.578 26.297 14.6556 26.0978 14.6556 25.8545C14.6556 25.5399 14.5508 25.3135 14.3411 25.1751C14.1314 25.0367 13.8147 24.9674 13.3911 24.9674H13.2464V24.4893H13.3974C13.7833 24.4851 14.0748 24.4222 14.2719 24.3006C14.469 24.1748 14.5676 23.9818 14.5676 23.7218C14.5676 23.4995 14.4942 23.3213 14.3474 23.1871C14.2048 23.0529 13.9993 22.9857 13.7308 22.9857C13.4708 22.9857 13.2611 23.0529 13.1017 23.1871C12.9424 23.3213 12.848 23.5016 12.8186 23.7281H12.2587ZM20.5181 22.7781V27.1316H19.9456V23.8854L18.4987 27.1316H18.096L16.6428 23.8791V27.1316H16.0703V22.7781H16.6868L18.2974 26.3767L19.9079 22.7781H20.5181Z" fill="white"/>
<path d="M11.2833 52.5101C11.2833 52.7114 11.2329 52.9043 11.1323 53.0888C11.0316 53.2692 10.8827 53.4202 10.6856 53.5418C10.4927 53.6634 10.2599 53.7326 9.98728 53.7494V54.259H9.64756V53.7494C9.2659 53.7159 8.95554 53.5942 8.71648 53.3845C8.47741 53.1706 8.35579 52.9001 8.35159 52.573H8.96183C8.97861 52.7491 9.04361 52.9022 9.15685 53.0322C9.27429 53.1622 9.43786 53.244 9.64756 53.2776V51.7048C9.36656 51.6335 9.14008 51.5601 8.96812 51.4846C8.79616 51.4091 8.64937 51.2917 8.52774 51.1323C8.40612 50.9729 8.3453 50.759 8.3453 50.4906C8.3453 50.1509 8.46274 49.8699 8.6976 49.6476C8.93667 49.4253 9.25332 49.3016 9.64756 49.2764V48.7543H9.98728V49.2764C10.3438 49.3058 10.6311 49.4211 10.8492 49.6224C11.0673 49.8196 11.1931 50.0775 11.2266 50.3963H10.6164C10.5954 50.2495 10.5304 50.1173 10.4214 49.9999C10.3123 49.8783 10.1676 49.7986 9.98728 49.7609V51.2959C10.2641 51.3672 10.4885 51.4406 10.6604 51.5161C10.8366 51.5874 10.9834 51.7027 11.1008 51.8621C11.2224 52.0215 11.2833 52.2375 11.2833 52.5101ZM8.93037 50.4592C8.93037 50.6647 8.99119 50.822 9.11282 50.931C9.23445 51.04 9.41269 51.1302 9.64756 51.2015V49.7483C9.42947 49.7692 9.25542 49.8405 9.1254 49.9622C8.99538 50.0796 8.93037 50.2453 8.93037 50.4592ZM9.98728 53.2839C10.2138 53.2587 10.3899 53.1769 10.5157 53.0385C10.6458 52.9001 10.7108 52.7345 10.7108 52.5415C10.7108 52.336 10.6478 52.1787 10.522 52.0697C10.3962 51.9564 10.218 51.8663 9.98728 51.7992V53.2839ZM12.2022 53.2524C12.7348 52.8246 13.1522 52.4744 13.4541 52.2018C13.7561 51.925 14.0098 51.6377 14.2154 51.3399C14.4251 51.0379 14.5299 50.7423 14.5299 50.4529C14.5299 50.1803 14.4628 49.9664 14.3286 49.8112C14.1986 49.6518 13.9868 49.5721 13.6932 49.5721C13.408 49.5721 13.1857 49.6623 13.0263 49.8426C12.8712 50.0188 12.7873 50.2558 12.7747 50.5535H12.2211C12.2378 50.0838 12.3804 49.721 12.6489 49.4652C12.9173 49.2093 13.2633 49.0814 13.6869 49.0814C14.1189 49.0814 14.4607 49.2009 14.7123 49.44C14.9682 49.6791 15.0961 50.0083 15.0961 50.4277C15.0961 50.7758 14.9913 51.1155 14.7816 51.4469C14.576 51.774 14.3412 52.0634 14.0769 52.315C13.8127 52.5625 13.4751 52.8519 13.0641 53.1832H15.2282V53.6613H12.2022V53.2524ZM20.4322 49.3582V53.7117H19.8597V50.4655L18.4128 53.7117H18.0101L16.5569 50.4592V53.7117H15.9844V49.3582H16.6009L18.2114 52.9567L19.822 49.3582H20.4322Z" fill="white"/>
<path d="M11.2833 79.0899C11.2833 79.2912 11.2329 79.4841 11.1323 79.6687C11.0316 79.849 10.8827 80 10.6856 80.1216C10.4927 80.2433 10.2599 80.3125 9.98728 80.3293V80.8388H9.64756V80.3293C9.2659 80.2957 8.95554 80.1741 8.71648 79.9644C8.47741 79.7505 8.35579 79.48 8.35159 79.1528H8.96183C8.97861 79.329 9.04361 79.482 9.15685 79.6121C9.27429 79.7421 9.43786 79.8239 9.64756 79.8574V78.2846C9.36656 78.2133 9.14008 78.1399 8.96812 78.0645C8.79616 77.989 8.64937 77.8715 8.52774 77.7121C8.40612 77.5528 8.3453 77.3389 8.3453 77.0705C8.3453 76.7307 8.46274 76.4497 8.6976 76.2274C8.93667 76.0052 9.25332 75.8814 9.64756 75.8563V75.3341H9.98728V75.8563C10.3438 75.8856 10.6311 76.001 10.8492 76.2023C11.0673 76.3994 11.1931 76.6573 11.2266 76.9761H10.6164C10.5954 76.8293 10.5304 76.6972 10.4214 76.5797C10.3123 76.4581 10.1676 76.3784 9.98728 76.3407V77.8757C10.2641 77.947 10.4885 78.0204 10.6604 78.0959C10.8366 78.1672 10.9834 78.2825 11.1008 78.4419C11.2224 78.6013 11.2833 78.8173 11.2833 79.0899ZM8.93037 77.039C8.93037 77.2445 8.99119 77.4018 9.11282 77.5108C9.23445 77.6199 9.41269 77.7101 9.64756 77.7813V76.3281C9.42947 76.3491 9.25542 76.4204 9.1254 76.542C8.99538 76.6594 8.93037 76.8251 8.93037 77.039ZM9.98728 79.8637C10.2138 79.8385 10.3899 79.7568 10.5157 79.6184C10.6458 79.48 10.7108 79.3143 10.7108 79.1214C10.7108 78.9158 10.6478 78.7586 10.522 78.6495C10.3962 78.5363 10.218 78.4461 9.98728 78.379V79.8637ZM12.1204 76.2652V75.743H13.3031V80.2915H12.7244V76.2652H12.1204ZM18.8287 75.9381V80.2915H18.2562V77.0453L16.8093 80.2915H16.4066L14.9534 77.039V80.2915H14.3809V75.9381H14.9974L16.6079 79.5366L18.2185 75.9381H18.8287Z" fill="white"/>
<path d="M11.2833 105.67C11.2833 105.871 11.2329 106.064 11.1323 106.249C11.0316 106.429 10.8827 106.58 10.6856 106.702C10.4927 106.823 10.2599 106.893 9.98728 106.909V107.419H9.64756V106.909C9.2659 106.876 8.95554 106.754 8.71648 106.544C8.47741 106.331 8.35579 106.06 8.35159 105.733H8.96183C8.97861 105.909 9.04361 106.062 9.15685 106.192C9.27429 106.322 9.43786 106.404 9.64756 106.437V104.865C9.36656 104.793 9.14008 104.72 8.96812 104.645C8.79616 104.569 8.64937 104.452 8.52774 104.292C8.40612 104.133 8.3453 103.919 8.3453 103.651C8.3453 103.311 8.46274 103.03 8.6976 102.808C8.93667 102.585 9.25332 102.462 9.64756 102.436V101.914H9.98728V102.436C10.3438 102.466 10.6311 102.581 10.8492 102.782C11.0673 102.979 11.1931 103.237 11.2266 103.556H10.6164C10.5954 103.409 10.5304 103.277 10.4214 103.16C10.3123 103.038 10.1676 102.959 9.98728 102.921V104.456C10.2641 104.527 10.4885 104.6 10.6604 104.676C10.8366 104.747 10.9834 104.863 11.1008 105.022C11.2224 105.181 11.2833 105.397 11.2833 105.67ZM8.93037 103.619C8.93037 103.825 8.99119 103.982 9.11282 104.091C9.23445 104.2 9.41269 104.29 9.64756 104.361V102.908C9.42947 102.929 9.25542 103 9.1254 103.122C8.99538 103.24 8.93037 103.405 8.93037 103.619ZM9.98728 106.444C10.2138 106.419 10.3899 106.337 10.5157 106.198C10.6458 106.06 10.7108 105.894 10.7108 105.701C10.7108 105.496 10.6478 105.339 10.522 105.23C10.3962 105.116 10.218 105.026 9.98728 104.959V106.444ZM12.2714 104.55C12.2714 103.829 12.3888 103.267 12.6237 102.864C12.8586 102.457 13.2696 102.254 13.8568 102.254C14.4397 102.254 14.8487 102.457 15.0835 102.864C15.3184 103.267 15.4358 103.829 15.4358 104.55C15.4358 105.284 15.3184 105.855 15.0835 106.261C14.8487 106.668 14.4397 106.872 13.8568 106.872C13.2696 106.872 12.8586 106.668 12.6237 106.261C12.3888 105.855 12.2714 105.284 12.2714 104.55ZM14.8696 104.55C14.8696 104.185 14.8445 103.877 14.7941 103.625C14.748 103.37 14.6494 103.164 14.4985 103.009C14.3517 102.854 14.1378 102.776 13.8568 102.776C13.5716 102.776 13.3535 102.854 13.2025 103.009C13.0557 103.164 12.9571 103.37 12.9068 103.625C12.8607 103.877 12.8376 104.185 12.8376 104.55C12.8376 104.928 12.8607 105.244 12.9068 105.5C12.9571 105.756 13.0557 105.961 13.2025 106.117C13.3535 106.272 13.5716 106.349 13.8568 106.349C14.1378 106.349 14.3517 106.272 14.4985 106.117C14.6494 105.961 14.748 105.756 14.7941 105.5C14.8445 105.244 14.8696 104.928 14.8696 104.55Z" fill="white"/>
<path d="M10.8429 130.904V131.388H8.33272V130.904H10.8429ZM14.7483 132.25C14.7483 132.451 14.6979 132.644 14.5973 132.829C14.4966 133.009 14.3477 133.16 14.1506 133.282C13.9577 133.403 13.7249 133.472 13.4523 133.489V133.999H13.1126V133.489C12.7309 133.456 12.4206 133.334 12.1815 133.124C11.9424 132.91 11.8208 132.64 11.8166 132.313H12.4269C12.4436 132.489 12.5086 132.642 12.6219 132.772C12.7393 132.902 12.9029 132.984 13.1126 133.017V131.445C12.8316 131.373 12.6051 131.3 12.4331 131.224C12.2612 131.149 12.1144 131.031 11.9928 130.872C11.8711 130.713 11.8103 130.499 11.8103 130.23C11.8103 129.891 11.9278 129.61 12.1626 129.387C12.4017 129.165 12.7183 129.041 13.1126 129.016V128.494H13.4523V129.016C13.8088 129.046 14.0961 129.161 14.3142 129.362C14.5323 129.559 14.6581 129.817 14.6917 130.136H14.0814C14.0604 129.989 13.9954 129.857 13.8864 129.74C13.7773 129.618 13.6327 129.538 13.4523 129.501V131.036C13.7291 131.107 13.9535 131.18 14.1255 131.256C14.3016 131.327 14.4484 131.442 14.5658 131.602C14.6875 131.761 14.7483 131.977 14.7483 132.25ZM12.3954 130.199C12.3954 130.404 12.4562 130.562 12.5778 130.671C12.6995 130.78 12.8777 130.87 13.1126 130.941V129.488C12.8945 129.509 12.7204 129.58 12.5904 129.702C12.4604 129.819 12.3954 129.985 12.3954 130.199ZM13.4523 133.024C13.6788 132.998 13.8549 132.917 13.9808 132.778C14.1108 132.64 14.1758 132.474 14.1758 132.281C14.1758 132.076 14.1129 131.918 13.9871 131.809C13.8612 131.696 13.683 131.606 13.4523 131.539V133.024ZM15.5854 129.425V128.903H16.7682V133.451H16.1894V129.425H15.5854ZM22.2937 129.098V133.451H21.7212V130.205L20.2743 133.451H19.8717L18.4184 130.199V133.451H17.8459V129.098H18.4624L20.073 132.696L21.6835 129.098H22.2937Z" fill="white"/>
<path d="M35.2791 84.5439C39.9032 80.0042 46.0136 76.7917 52.7101 78.3788C56.4029 79.3609 60.6221 83.0347 63.8045 83.7482C66.5168 84.3608 68.2314 82.9698 69.8621 80.4357C71.4917 77.8469 72.6788 74.5531 74.1724 71.8053C77.0258 65.4832 80.6652 60.0629 88.0577 57.8597C95.9878 55.4962 101.514 64.4566 108.613 63.0186C116.623 61.1847 122.57 44.6621 130.807 43.2147C134.823 42.5051 142.092 49.372 145.878 47.8449C153.88 44.9907 160.785 29.11 169.093 38.6354C173.229 43.2842 174.231 50.6043 179.153 54.5231C186.538 59.0727 190.224 48.637 191.613 43.2147C193.13 36.6703 200.544 23.6065 209.33 31.9167C212.85 35.3094 213.012 36.516 216.746 39.2682C223.988 43.6255 232.129 22.1178 241.056 23.7484" stroke="#4C57FF" stroke-width="1.5" stroke-miterlimit="10" stroke-linecap="round"/>
<path opacity="0.24" d="M241.628 130.242H35.2791V84.1379C39.9419 79.6316 46.0994 76.4353 52.8492 78.0149C56.572 78.9905 60.8211 82.642 64.0362 83.3481C66.7719 83.9521 68.5016 82.577 70.1468 80.059C71.7919 77.4852 72.9858 74.2147 74.49 71.483C77.3666 65.202 81.0789 59.8294 88.4878 57.6295C96.4756 55.2577 102.053 64.1799 109.207 62.749C117.283 60.9279 123.271 44.5193 131.581 43.0791C135.633 42.3729 141.453 48.8396 145.269 47.3158C153.335 44.4819 161.805 29.0676 170.172 38.5263C174.336 43.1441 175.352 50.41 180.315 54.3031C187.761 58.8188 191.502 44.9931 192.903 39.6041C194.435 33.1001 199.341 23.618 208.196 31.8687C211.74 35.2415 214.017 35.4322 217.787 38.1639C226.029 43.0593 232.9 20.548 241.628 22.1128V130.242Z" fill="url(#paint0_linear_4001_2146)"/>
<g filter="url(#filter1_b_4001_2146)">
<rect x="141.642" y="100" width="145" height="75" rx="12" fill="#F3F5FF" fill-opacity="0.14"/>
<path d="M159.938 116.66V117.776H156.398V120.236H159.158V121.352H156.398V125H155.03V116.66H159.938ZM164.074 125.108C163.45 125.108 162.886 124.968 162.382 124.688C161.878 124.4 161.482 124 161.194 123.488C160.906 122.968 160.762 122.368 160.762 121.688C160.762 121.016 160.91 120.42 161.206 119.9C161.502 119.38 161.906 118.98 162.418 118.7C162.93 118.42 163.502 118.28 164.134 118.28C164.766 118.28 165.338 118.42 165.85 118.7C166.362 118.98 166.766 119.38 167.062 119.9C167.358 120.42 167.506 121.016 167.506 121.688C167.506 122.36 167.354 122.956 167.05 123.476C166.746 123.996 166.33 124.4 165.802 124.688C165.282 124.968 164.706 125.108 164.074 125.108ZM164.074 123.92C164.426 123.92 164.754 123.836 165.058 123.668C165.37 123.5 165.622 123.248 165.814 122.912C166.006 122.576 166.102 122.168 166.102 121.688C166.102 121.208 166.01 120.804 165.826 120.476C165.642 120.14 165.398 119.888 165.094 119.72C164.79 119.552 164.462 119.468 164.11 119.468C163.758 119.468 163.43 119.552 163.126 119.72C162.83 119.888 162.594 120.14 162.418 120.476C162.242 120.804 162.154 121.208 162.154 121.688C162.154 122.4 162.334 122.952 162.694 123.344C163.062 123.728 163.522 123.92 164.074 123.92ZM170.226 119.348C170.426 119.012 170.69 118.752 171.018 118.568C171.354 118.376 171.75 118.28 172.206 118.28V119.696H171.858C171.322 119.696 170.914 119.832 170.634 120.104C170.362 120.376 170.226 120.848 170.226 121.52V125H168.858V118.388H170.226V119.348ZM179.524 121.532C179.524 121.78 179.508 122.004 179.476 122.204H174.424C174.464 122.732 174.66 123.156 175.012 123.476C175.364 123.796 175.796 123.956 176.308 123.956C177.044 123.956 177.564 123.648 177.868 123.032H179.344C179.144 123.64 178.78 124.14 178.252 124.532C177.732 124.916 177.084 125.108 176.308 125.108C175.676 125.108 175.108 124.968 174.604 124.688C174.108 124.4 173.716 124 173.428 123.488C173.148 122.968 173.008 122.368 173.008 121.688C173.008 121.008 173.144 120.412 173.416 119.9C173.696 119.38 174.084 118.98 174.58 118.7C175.084 118.42 175.66 118.28 176.308 118.28C176.932 118.28 177.488 118.416 177.976 118.688C178.464 118.96 178.844 119.344 179.116 119.84C179.388 120.328 179.524 120.892 179.524 121.532ZM178.096 121.1C178.088 120.596 177.908 120.192 177.556 119.888C177.204 119.584 176.768 119.432 176.248 119.432C175.776 119.432 175.372 119.584 175.036 119.888C174.7 120.184 174.5 120.588 174.436 121.1H178.096ZM180.414 121.688C180.414 121.008 180.55 120.412 180.822 119.9C181.102 119.38 181.486 118.98 181.974 118.7C182.462 118.42 183.022 118.28 183.654 118.28C184.454 118.28 185.114 118.472 185.634 118.856C186.162 119.232 186.518 119.772 186.702 120.476H185.226C185.106 120.148 184.914 119.892 184.65 119.708C184.386 119.524 184.054 119.432 183.654 119.432C183.094 119.432 182.646 119.632 182.31 120.032C181.982 120.424 181.818 120.976 181.818 121.688C181.818 122.4 181.982 122.956 182.31 123.356C182.646 123.756 183.094 123.956 183.654 123.956C184.446 123.956 184.97 123.608 185.226 122.912H186.702C186.51 123.584 186.15 124.12 185.622 124.52C185.094 124.912 184.438 125.108 183.654 125.108C183.022 125.108 182.462 124.968 181.974 124.688C181.486 124.4 181.102 124 180.822 123.488C180.55 122.968 180.414 122.368 180.414 121.688ZM187.609 121.664C187.609 121 187.745 120.412 188.017 119.9C188.297 119.388 188.673 118.992 189.145 118.712C189.625 118.424 190.153 118.28 190.729 118.28C191.249 118.28 191.701 118.384 192.085 118.592C192.477 118.792 192.789 119.044 193.021 119.348V118.388H194.401V125H193.021V124.016C192.789 124.328 192.473 124.588 192.073 124.796C191.673 125.004 191.217 125.108 190.705 125.108C190.137 125.108 189.617 124.964 189.145 124.676C188.673 124.38 188.297 123.972 188.017 123.452C187.745 122.924 187.609 122.328 187.609 121.664ZM193.021 121.688C193.021 121.232 192.925 120.836 192.733 120.5C192.549 120.164 192.305 119.908 192.001 119.732C191.697 119.556 191.369 119.468 191.017 119.468C190.665 119.468 190.337 119.556 190.033 119.732C189.729 119.9 189.481 120.152 189.289 120.488C189.105 120.816 189.013 121.208 189.013 121.664C189.013 122.12 189.105 122.52 189.289 122.864C189.481 123.208 189.729 123.472 190.033 123.656C190.345 123.832 190.673 123.92 191.017 123.92C191.369 123.92 191.697 123.832 192.001 123.656C192.305 123.48 192.549 123.224 192.733 122.888C192.925 122.544 193.021 122.144 193.021 121.688ZM198.598 125.108C198.078 125.108 197.61 125.016 197.194 124.832C196.786 124.64 196.462 124.384 196.222 124.064C195.982 123.736 195.854 123.372 195.838 122.972H197.254C197.278 123.252 197.41 123.488 197.65 123.68C197.898 123.864 198.206 123.956 198.574 123.956C198.958 123.956 199.254 123.884 199.462 123.74C199.678 123.588 199.786 123.396 199.786 123.164C199.786 122.916 199.666 122.732 199.426 122.612C199.194 122.492 198.822 122.36 198.31 122.216C197.814 122.08 197.41 121.948 197.098 121.82C196.786 121.692 196.514 121.496 196.282 121.232C196.058 120.968 195.946 120.62 195.946 120.188C195.946 119.836 196.05 119.516 196.258 119.228C196.466 118.932 196.762 118.7 197.146 118.532C197.538 118.364 197.986 118.28 198.49 118.28C199.242 118.28 199.846 118.472 200.302 118.856C200.766 119.232 201.014 119.748 201.046 120.404H199.678C199.654 120.108 199.534 119.872 199.318 119.696C199.102 119.52 198.81 119.432 198.442 119.432C198.082 119.432 197.806 119.5 197.614 119.636C197.422 119.772 197.326 119.952 197.326 120.176C197.326 120.352 197.39 120.5 197.518 120.62C197.646 120.74 197.802 120.836 197.986 120.908C198.17 120.972 198.442 121.056 198.802 121.16C199.282 121.288 199.674 121.42 199.978 121.556C200.29 121.684 200.558 121.876 200.782 122.132C201.006 122.388 201.122 122.728 201.13 123.152C201.13 123.528 201.026 123.864 200.818 124.16C200.61 124.456 200.314 124.688 199.93 124.856C199.554 125.024 199.11 125.108 198.598 125.108ZM204.204 119.504V123.164C204.204 123.412 204.26 123.592 204.372 123.704C204.492 123.808 204.692 123.86 204.972 123.86H205.812V125H204.732C204.116 125 203.644 124.856 203.316 124.568C202.988 124.28 202.824 123.812 202.824 123.164V119.504H202.044V118.388H202.824V116.744H204.204V118.388H205.812V119.504H204.204ZM213.133 121.532C213.133 121.78 213.117 122.004 213.085 122.204H208.033C208.073 122.732 208.269 123.156 208.621 123.476C208.973 123.796 209.405 123.956 209.917 123.956C210.653 123.956 211.173 123.648 211.477 123.032H212.953C212.753 123.64 212.389 124.14 211.861 124.532C211.341 124.916 210.693 125.108 209.917 125.108C209.285 125.108 208.717 124.968 208.213 124.688C207.717 124.4 207.325 124 207.037 123.488C206.757 122.968 206.617 122.368 206.617 121.688C206.617 121.008 206.753 120.412 207.025 119.9C207.305 119.38 207.693 118.98 208.189 118.7C208.693 118.42 209.269 118.28 209.917 118.28C210.541 118.28 211.097 118.416 211.585 118.688C212.073 118.96 212.453 119.344 212.725 119.84C212.997 120.328 213.133 120.892 213.133 121.532ZM211.705 121.1C211.697 120.596 211.517 120.192 211.165 119.888C210.813 119.584 210.377 119.432 209.857 119.432C209.385 119.432 208.981 119.584 208.645 119.888C208.309 120.184 208.109 120.588 208.045 121.1H211.705ZM214.023 121.664C214.023 121 214.159 120.412 214.431 119.9C214.711 119.388 215.087 118.992 215.559 118.712C216.039 118.424 216.571 118.28 217.155 118.28C217.587 118.28 218.011 118.376 218.427 118.568C218.851 118.752 219.187 119 219.435 119.312V116.12H220.815V125H219.435V124.004C219.211 124.324 218.899 124.588 218.499 124.796C218.107 125.004 217.655 125.108 217.143 125.108C216.567 125.108 216.039 124.964 215.559 124.676C215.087 124.38 214.711 123.972 214.431 123.452C214.159 122.924 214.023 122.328 214.023 121.664ZM219.435 121.688C219.435 121.232 219.339 120.836 219.147 120.5C218.963 120.164 218.719 119.908 218.415 119.732C218.111 119.556 217.783 119.468 217.431 119.468C217.079 119.468 216.751 119.556 216.447 119.732C216.143 119.9 215.895 120.152 215.703 120.488C215.519 120.816 215.427 121.208 215.427 121.664C215.427 122.12 215.519 122.52 215.703 122.864C215.895 123.208 216.143 123.472 216.447 123.656C216.759 123.832 217.087 123.92 217.431 123.92C217.783 123.92 218.111 123.832 218.415 123.656C218.719 123.48 218.963 123.224 219.147 122.888C219.339 122.544 219.435 122.144 219.435 121.688ZM227.097 119.348C227.297 119.012 227.561 118.752 227.889 118.568C228.225 118.376 228.621 118.28 229.077 118.28V119.696H228.729C228.193 119.696 227.785 119.832 227.505 120.104C227.233 120.376 227.097 120.848 227.097 121.52V125H225.729V118.388H227.097V119.348ZM236.395 121.532C236.395 121.78 236.379 122.004 236.347 122.204H231.295C231.335 122.732 231.531 123.156 231.883 123.476C232.235 123.796 232.667 123.956 233.179 123.956C233.915 123.956 234.435 123.648 234.739 123.032H236.215C236.015 123.64 235.651 124.14 235.123 124.532C234.603 124.916 233.955 125.108 233.179 125.108C232.547 125.108 231.979 124.968 231.475 124.688C230.979 124.4 230.587 124 230.299 123.488C230.019 122.968 229.879 122.368 229.879 121.688C229.879 121.008 230.015 120.412 230.287 119.9C230.567 119.38 230.955 118.98 231.451 118.7C231.955 118.42 232.531 118.28 233.179 118.28C233.803 118.28 234.359 118.416 234.847 118.688C235.335 118.96 235.715 119.344 235.987 119.84C236.259 120.328 236.395 120.892 236.395 121.532ZM234.967 121.1C234.959 120.596 234.779 120.192 234.427 119.888C234.075 119.584 233.639 119.432 233.119 119.432C232.647 119.432 232.243 119.584 231.907 119.888C231.571 120.184 231.371 120.588 231.307 121.1H234.967ZM240.297 123.776L242.169 118.388H243.621L241.101 125H239.469L236.961 118.388H238.425L240.297 123.776ZM250.715 121.532C250.715 121.78 250.699 122.004 250.667 122.204H245.615C245.655 122.732 245.851 123.156 246.203 123.476C246.555 123.796 246.987 123.956 247.499 123.956C248.235 123.956 248.755 123.648 249.059 123.032H250.535C250.335 123.64 249.971 124.14 249.443 124.532C248.923 124.916 248.275 125.108 247.499 125.108C246.867 125.108 246.299 124.968 245.795 124.688C245.299 124.4 244.907 124 244.619 123.488C244.339 122.968 244.199 122.368 244.199 121.688C244.199 121.008 244.335 120.412 244.607 119.9C244.887 119.38 245.275 118.98 245.771 118.7C246.275 118.42 246.851 118.28 247.499 118.28C248.123 118.28 248.679 118.416 249.167 118.688C249.655 118.96 250.035 119.344 250.307 119.84C250.579 120.328 250.715 120.892 250.715 121.532ZM249.287 121.1C249.279 120.596 249.099 120.192 248.747 119.888C248.395 119.584 247.959 119.432 247.439 119.432C246.967 119.432 246.563 119.584 246.227 119.888C245.891 120.184 245.691 120.588 245.627 121.1H249.287ZM255.397 118.28C255.917 118.28 256.381 118.388 256.789 118.604C257.205 118.82 257.529 119.14 257.761 119.564C257.993 119.988 258.109 120.5 258.109 121.1V125H256.753V121.304C256.753 120.712 256.605 120.26 256.309 119.948C256.013 119.628 255.609 119.468 255.097 119.468C254.585 119.468 254.177 119.628 253.873 119.948C253.577 120.26 253.429 120.712 253.429 121.304V125H252.061V118.388H253.429V119.144C253.653 118.872 253.937 118.66 254.281 118.508C254.633 118.356 255.005 118.28 255.397 118.28ZM265.842 118.388V125H264.474V124.22C264.258 124.492 263.974 124.708 263.622 124.868C263.278 125.02 262.91 125.096 262.518 125.096C261.998 125.096 261.53 124.988 261.114 124.772C260.706 124.556 260.382 124.236 260.142 123.812C259.91 123.388 259.794 122.876 259.794 122.276V118.388H261.15V122.072C261.15 122.664 261.298 123.12 261.594 123.44C261.89 123.752 262.294 123.908 262.806 123.908C263.318 123.908 263.722 123.752 264.018 123.44C264.322 123.12 264.474 122.664 264.474 122.072V118.388H265.842ZM273.707 121.532C273.707 121.78 273.691 122.004 273.659 122.204H268.607C268.647 122.732 268.843 123.156 269.195 123.476C269.547 123.796 269.979 123.956 270.491 123.956C271.227 123.956 271.747 123.648 272.051 123.032H273.527C273.327 123.64 272.963 124.14 272.435 124.532C271.915 124.916 271.267 125.108 270.491 125.108C269.859 125.108 269.291 124.968 268.787 124.688C268.291 124.4 267.899 124 267.611 123.488C267.331 122.968 267.191 122.368 267.191 121.688C267.191 121.008 267.327 120.412 267.599 119.9C267.879 119.38 268.267 118.98 268.763 118.7C269.267 118.42 269.843 118.28 270.491 118.28C271.115 118.28 271.671 118.416 272.159 118.688C272.647 118.96 273.027 119.344 273.299 119.84C273.571 120.328 273.707 120.892 273.707 121.532ZM272.279 121.1C272.271 120.596 272.091 120.192 271.739 119.888C271.387 119.584 270.951 119.432 270.431 119.432C269.959 119.432 269.555 119.584 269.219 119.888C268.883 120.184 268.683 120.588 268.619 121.1H272.279Z" fill="#F2F2F3"/>
<path d="M188.678 149.312V141.99H180.763" stroke="#4C57FF" stroke-width="1.5" stroke-linecap="round" stroke-linejoin="round"/>
<path d="M188.679 141.99L174.605 155.009" stroke="#4C57FF" stroke-width="1.5" stroke-linecap="round" stroke-linejoin="round"/>
<path d="M203.196 158.065V155.709C201.712 155.447 200.636 154.982 200.112 154.982C199.676 154.982 199.588 155.244 199.355 155.855H198.832L198.541 149.396H199.181C199.937 152.044 201.101 154.051 203.196 154.778V146.982C200.49 146.08 198.861 144.654 198.861 141.687C198.861 139.185 200.286 136.741 203.196 136.072V133.6H204.097V135.927C204.301 135.927 204.505 135.898 204.737 135.898C205.116 135.898 205.465 135.927 205.814 135.985V133.6H206.716V136.13C207.792 136.392 208.519 136.8 209.101 136.8C209.508 136.8 209.625 136.596 209.828 136.218H210.265L210.41 141.687H209.799C209.13 139.418 208.258 137.789 206.716 137.091V143.898C209.247 144.742 211.458 146.109 211.458 149.629C211.458 152.654 209.741 155.04 206.716 155.68V158.065H205.814V155.825C205.552 155.855 205.261 155.855 204.999 155.855C204.679 155.855 204.388 155.855 204.097 155.825V158.065H203.196ZM209.538 151.287C209.538 149.629 208.519 148.756 206.716 148.058V154.807C208.432 154.313 209.538 153.062 209.538 151.287ZM205.028 155.04C205.29 155.04 205.552 155.04 205.814 155.011V147.738C205.29 147.563 204.708 147.418 204.097 147.273V154.982C204.388 155.011 204.679 155.04 205.028 155.04ZM204.097 143.142L205.814 143.636V136.829C205.465 136.741 205.116 136.712 204.737 136.712C204.505 136.712 204.301 136.741 204.097 136.741V143.142ZM200.868 139.825C200.868 141.396 201.77 142.211 203.196 142.822V136.916C201.683 137.323 200.868 138.4 200.868 139.825ZM219.907 144.509C218.481 144.509 217.172 145.032 215.95 145.789L215.397 145.527V135.956L215.863 135.607C218.277 135.956 223.543 136.567 224.387 136.567C225.056 136.567 225.318 136.218 225.55 135.345L226.161 135.432C225.638 139.011 225.172 139.854 224.038 139.854C223.398 139.854 222.583 139.621 221.623 139.301L216.416 137.701L216.27 144.567C217.55 143.956 219.005 143.52 220.721 143.52C225.463 143.52 227.092 146.574 227.092 149.6C227.092 153.789 223.979 156.291 219.499 156.291C216.619 156.291 213.943 155.156 213.943 152.247C213.943 150.938 214.583 149.978 215.921 149.978C217.027 149.978 217.812 150.647 217.812 151.753C217.812 152.189 217.725 152.684 217.579 153.091H216.677C216.561 153.324 216.503 153.527 216.503 153.731C216.503 154.691 217.725 155.389 219.383 155.389C222.147 155.389 223.194 153.382 223.194 149.367C223.194 146.022 222.408 144.509 219.907 144.509ZM245.491 135.636H252.065V136.48H250.029V155.156H252.065V156H244.298V155.156H246.334V136.77H246.218L240.458 156H238.829L232.691 136.741H232.574V155.156H234.611V156H229.52V155.156H231.556V136.48H229.52V135.636H236.211L240.953 150.909L245.491 135.636Z" fill="white"/>
</g>
</g>
<defs>
<filter id="filter0_b_4001_2146" x="-17.6924" y="-18.1107" width="322.445" height="211.221" filterUnits="userSpaceOnUse" color-interpolation-filters="sRGB">
<feFlood flood-opacity="0" result="BackgroundImageFix"/>
<feGaussianBlur in="BackgroundImageFix" stdDeviation="9.05537"/>
<feComposite in2="SourceAlpha" operator="in" result="effect1_backgroundBlur_4001_2146"/>
<feBlend mode="normal" in="SourceGraphic" in2="effect1_backgroundBlur_4001_2146" result="shape"/>
</filter>
<filter id="filter1_b_4001_2146" x="102.852" y="61.21" width="222.58" height="152.58" filterUnits="userSpaceOnUse" color-interpolation-filters="sRGB">
<feFlood flood-opacity="0" result="BackgroundImageFix"/>
<feGaussianBlur in="BackgroundImageFix" stdDeviation="19.395"/>
<feComposite in2="SourceAlpha" operator="in" result="effect1_backgroundBlur_4001_2146"/>
<feBlend mode="normal" in="SourceGraphic" in2="effect1_backgroundBlur_4001_2146" result="shape"/>
</filter>
<linearGradient id="paint0_linear_4001_2146" x1="138.418" y1="46.0001" x2="138.453" y2="130.242" gradientUnits="userSpaceOnUse">
<stop stop-color="#4C57FF"/>
<stop offset="1" stop-color="#4C57FF" stop-opacity="0.11"/>
</linearGradient>
</defs>
</svg>
