<svg width="28" height="28" viewBox="0 0 28 28" fill="none" xmlns="http://www.w3.org/2000/svg">
<path d="M14.2677 7.15717C10.3868 7.15717 7.25636 10.2883 7.25636 14.1701C7.25636 18.052 10.3868 21.1831 14.2677 21.1831C18.1487 21.1831 21.2791 18.052 21.2791 14.1701C21.2791 10.2883 18.1487 7.15717 14.2677 7.15717ZM14.2677 18.7295C11.7598 18.7295 9.70943 16.6848 9.70943 14.1701C9.70943 11.6555 11.7537 9.61079 14.2677 9.61079C16.7818 9.61079 18.8261 11.6555 18.8261 14.1701C18.8261 16.6848 16.7757 18.7295 14.2677 18.7295ZM23.2013 6.87031C23.2013 7.77973 22.4691 8.50605 21.5659 8.50605C20.6567 8.50605 19.9306 7.77363 19.9306 6.87031C19.9306 5.96699 20.6628 5.23456 21.5659 5.23456C22.4691 5.23456 23.2013 5.96699 23.2013 6.87031ZM27.8451 8.53047C27.7413 6.3393 27.2409 4.39838 25.6361 2.79926C24.0373 1.20014 22.0968 0.699646 19.9061 0.589783C17.6483 0.461609 10.881 0.461609 8.62325 0.589783C6.43867 0.693543 4.49819 1.19403 2.89332 2.79315C1.28845 4.39228 0.794174 6.3332 0.684335 8.52436C0.55619 10.7827 0.55619 17.5515 0.684335 19.8098C0.788072 22.0009 1.28845 23.9419 2.89332 25.541C4.49819 27.1401 6.43257 27.6406 8.62325 27.7505C10.881 27.8786 17.6483 27.8786 19.9061 27.7505C22.0968 27.6467 24.0373 27.1462 25.6361 25.541C27.2348 23.9419 27.7352 22.0009 27.8451 19.8098C27.9732 17.5515 27.9732 10.7888 27.8451 8.53047ZM24.9282 22.2329C24.4523 23.4292 23.5308 24.3508 22.3287 24.833C20.5286 25.5471 16.2571 25.3823 14.2677 25.3823C12.2784 25.3823 8.00083 25.541 6.20679 24.833C5.01077 24.3569 4.08934 23.4353 3.60727 22.2329C2.89332 20.4323 3.05808 16.1599 3.05808 14.1701C3.05808 12.1804 2.89942 7.9018 3.60727 6.10737C4.08324 4.91108 5.00467 3.98945 6.20679 3.50727C8.00693 2.79315 12.2784 2.95795 14.2677 2.95795C16.2571 2.95795 20.5347 2.79926 22.3287 3.50727C23.5247 3.98334 24.4462 4.90497 24.9282 6.10737C25.6422 7.90791 25.4774 12.1804 25.4774 14.1701C25.4774 16.1599 25.6422 20.4384 24.9282 22.2329Z" fill="white"/>
</svg>
