<svg width="32" height="30" viewBox="0 0 32 30" fill="none" xmlns="http://www.w3.org/2000/svg">
<path fill-rule="evenodd" clip-rule="evenodd" d="M7.66906 3.71813C7.66906 5.47253 6.33323 6.89234 4.24421 6.89234C2.23659 6.89234 0.900754 5.47253 0.942095 3.71813C0.900754 1.87846 2.23656 0.5 4.28423 0.5C6.3332 0.5 7.62901 1.87846 7.66906 3.71813ZM1.11005 29.8353V9.39992H7.46105V29.834L1.11005 29.8353Z" fill="white"/>
<path fill-rule="evenodd" clip-rule="evenodd" d="M12.5522 15.9237C12.5522 13.3747 12.4682 11.2018 12.3843 9.40471H17.9007L18.1939 12.2043H18.3193C19.1551 10.9085 21.2442 8.94609 24.629 8.94609C28.807 8.94609 31.9412 11.7043 31.9412 17.7194V29.8401H25.5901V18.5152C25.5901 15.881 24.6716 14.0853 22.3733 14.0853C20.6176 14.0853 19.5737 15.2971 19.1564 16.4663C18.9885 16.8848 18.9058 17.4688 18.9058 18.0553V29.8401H12.5548L12.5522 15.9237Z" fill="white"/>
</svg>
