<svg width="218" height="173" viewBox="0 0 218 173" fill="none" xmlns="http://www.w3.org/2000/svg">
<g filter="url(#filter0_b_4001_2205)">
<rect y="0.610352" width="218" height="171.779" rx="20" fill="#DEDEDE" fill-opacity="0.5"/>
<path d="M24.104 34.6104L21.864 30.7184H20.646V34.6104H19.05V24.8804H22.41C23.1567 24.8804 23.7867 25.011 24.3 25.2724C24.8227 25.5337 25.21 25.8837 25.462 26.3224C25.7233 26.761 25.854 27.251 25.854 27.7924C25.854 28.427 25.6673 29.0057 25.294 29.5284C24.93 30.0417 24.3653 30.3917 23.6 30.5784L26.008 34.6104H24.104ZM20.646 29.4444H22.41C23.0073 29.4444 23.4553 29.295 23.754 28.9964C24.062 28.6977 24.216 28.2964 24.216 27.7924C24.216 27.2884 24.0667 26.8964 23.768 26.6164C23.4693 26.327 23.0167 26.1824 22.41 26.1824H20.646V29.4444ZM30.6117 26.1684V29.0244H33.9717V30.3264H30.6117V33.3084H34.3917V34.6104H29.0157V24.8664H34.3917V26.1684H30.6117ZM45.8635 24.8804L42.2095 34.6104H40.3615L36.6935 24.8804H38.4015L41.2855 32.9724L44.1835 24.8804H45.8635ZM49.9142 26.1684V29.0244H53.2742V30.3264H49.9142V33.3084H53.6942V34.6104H48.3182V24.8664H53.6942V26.1684H49.9142ZM64.774 34.6104H63.178L58.376 27.3444V34.6104H56.78V24.8664H58.376L63.178 32.1184V24.8664H64.774V34.6104ZM69.5718 24.8804V31.0824C69.5718 31.8197 69.7632 32.375 70.1458 32.7484C70.5378 33.1217 71.0792 33.3084 71.7698 33.3084C72.4698 33.3084 73.0112 33.1217 73.3938 32.7484C73.7858 32.375 73.9818 31.8197 73.9818 31.0824V24.8804H75.5778V31.0544C75.5778 31.8477 75.4052 32.5197 75.0598 33.0704C74.7145 33.621 74.2525 34.0317 73.6738 34.3024C73.0952 34.573 72.4558 34.7084 71.7558 34.7084C71.0558 34.7084 70.4165 34.573 69.8378 34.3024C69.2685 34.0317 68.8158 33.621 68.4798 33.0704C68.1438 32.5197 67.9758 31.8477 67.9758 31.0544V24.8804H69.5718ZM80.3719 26.1684V29.0244H83.7319V30.3264H80.3719V33.3084H84.1519V34.6104H78.7759V24.8664H84.1519V26.1684H80.3719ZM24.776 46.8804V48.1824H20.646V51.0524H23.866V52.3544H20.646V56.6104H19.05V46.8804H24.776ZM31.8131 56.7084C30.9077 56.7084 30.0724 56.4984 29.3071 56.0784C28.5511 55.649 27.9491 55.0564 27.5011 54.3004C27.0624 53.535 26.8431 52.6764 26.8431 51.7244C26.8431 50.7724 27.0624 49.9184 27.5011 49.1624C27.9491 48.4064 28.5511 47.8184 29.3071 47.3984C30.0724 46.969 30.9077 46.7544 31.8131 46.7544C32.7277 46.7544 33.5631 46.969 34.3191 47.3984C35.0844 47.8184 35.6864 48.4064 36.1251 49.1624C36.5637 49.9184 36.7831 50.7724 36.7831 51.7244C36.7831 52.6764 36.5637 53.535 36.1251 54.3004C35.6864 55.0564 35.0844 55.649 34.3191 56.0784C33.5631 56.4984 32.7277 56.7084 31.8131 56.7084ZM31.8131 55.3224C32.4571 55.3224 33.0311 55.1777 33.5351 54.8884C34.0391 54.5897 34.4311 54.1697 34.7111 53.6284C35.0004 53.0777 35.1451 52.443 35.1451 51.7244C35.1451 51.0057 35.0004 50.3757 34.7111 49.8344C34.4311 49.293 34.0391 48.8777 33.5351 48.5884C33.0311 48.299 32.4571 48.1544 31.8131 48.1544C31.1691 48.1544 30.5951 48.299 30.0911 48.5884C29.5871 48.8777 29.1904 49.293 28.9011 49.8344C28.6211 50.3757 28.4811 51.0057 28.4811 51.7244C28.4811 52.443 28.6211 53.0777 28.9011 53.6284C29.1904 54.1697 29.5871 54.5897 30.0911 54.8884C30.5951 55.1777 31.1691 55.3224 31.8131 55.3224ZM44.5276 56.6104L42.2876 52.7184H41.0696V56.6104H39.4736V46.8804H42.8336C43.5803 46.8804 44.2103 47.011 44.7236 47.2724C45.2463 47.5337 45.6336 47.8837 45.8856 48.3224C46.1469 48.761 46.2776 49.251 46.2776 49.7924C46.2776 50.427 46.0909 51.0057 45.7176 51.5284C45.3536 52.0417 44.7889 52.3917 44.0236 52.5784L46.4316 56.6104H44.5276ZM41.0696 51.4444H42.8336C43.4309 51.4444 43.8789 51.295 44.1776 50.9964C44.4856 50.6977 44.6396 50.2964 44.6396 49.7924C44.6396 49.2884 44.4903 48.8964 44.1916 48.6164C43.8929 48.327 43.4403 48.1824 42.8336 48.1824H41.0696V51.4444ZM51.0353 48.1684V51.0244H54.3953V52.3264H51.0353V55.3084H54.8153V56.6104H49.4393V46.8664H54.8153V48.1684H51.0353ZM57.3691 51.7244C57.3691 50.7724 57.5884 49.9184 58.0271 49.1624C58.4751 48.4064 59.0771 47.8184 59.8331 47.3984C60.5984 46.969 61.4338 46.7544 62.3391 46.7544C63.3751 46.7544 64.2944 47.011 65.0971 47.5244C65.9091 48.0284 66.4971 48.747 66.8611 49.6804H64.9431C64.6911 49.167 64.3411 48.7844 63.8931 48.5324C63.4451 48.2804 62.9271 48.1544 62.3391 48.1544C61.6951 48.1544 61.1211 48.299 60.6171 48.5884C60.1131 48.8777 59.7164 49.293 59.4271 49.8344C59.1471 50.3757 59.0071 51.0057 59.0071 51.7244C59.0071 52.443 59.1471 53.073 59.4271 53.6144C59.7164 54.1557 60.1131 54.5757 60.6171 54.8744C61.1211 55.1637 61.6951 55.3084 62.3391 55.3084C62.9271 55.3084 63.4451 55.1824 63.8931 54.9304C64.3411 54.6784 64.6911 54.2957 64.9431 53.7824H66.8611C66.4971 54.7157 65.9091 55.4344 65.0971 55.9384C64.2944 56.4424 63.3751 56.6944 62.3391 56.6944C61.4244 56.6944 60.5891 56.4844 59.8331 56.0644C59.0771 55.635 58.4751 55.0424 58.0271 54.2864C57.5884 53.5304 57.3691 52.6764 57.3691 51.7244ZM75.7152 54.6224H71.6412L70.9412 56.6104H69.2752L72.7612 46.8664H74.6092L78.0952 56.6104H76.4152L75.7152 54.6224ZM75.2672 53.3204L73.6852 48.7984L72.0892 53.3204H75.2672ZM83.9369 56.7084C83.2836 56.7084 82.6956 56.5964 82.1729 56.3724C81.6503 56.139 81.2396 55.8124 80.9409 55.3924C80.6423 54.9724 80.4929 54.4824 80.4929 53.9224H82.2009C82.2383 54.3424 82.4016 54.6877 82.6909 54.9584C82.9896 55.229 83.4049 55.3644 83.9369 55.3644C84.4876 55.3644 84.9169 55.2337 85.2249 54.9724C85.5329 54.7017 85.6869 54.3564 85.6869 53.9364C85.6869 53.6097 85.5889 53.3437 85.3929 53.1384C85.2063 52.933 84.9683 52.7744 84.6789 52.6624C84.3989 52.5504 84.0069 52.429 83.5029 52.2984C82.8683 52.1304 82.3503 51.9624 81.9489 51.7944C81.5569 51.617 81.2209 51.3464 80.9409 50.9824C80.6609 50.6184 80.5209 50.133 80.5209 49.5264C80.5209 48.9664 80.6609 48.4764 80.9409 48.0564C81.2209 47.6364 81.6129 47.3144 82.1169 47.0904C82.6209 46.8664 83.2043 46.7544 83.8669 46.7544C84.8096 46.7544 85.5796 46.9924 86.1769 47.4684C86.7836 47.935 87.1196 48.579 87.1849 49.4004H85.4209C85.3929 49.0457 85.2249 48.7424 84.9169 48.4904C84.6089 48.2384 84.2029 48.1124 83.6989 48.1124C83.2416 48.1124 82.8683 48.229 82.5789 48.4624C82.2896 48.6957 82.1449 49.0317 82.1449 49.4704C82.1449 49.769 82.2336 50.0164 82.4109 50.2124C82.5976 50.399 82.8309 50.5484 83.1109 50.6604C83.3909 50.7724 83.7736 50.8937 84.2589 51.0244C84.9029 51.2017 85.4256 51.379 85.8269 51.5564C86.2376 51.7337 86.5829 52.009 86.8629 52.3824C87.1523 52.7464 87.2969 53.2364 87.2969 53.8524C87.2969 54.347 87.1616 54.8137 86.8909 55.2524C86.6296 55.691 86.2423 56.0457 85.7289 56.3164C85.2249 56.5777 84.6276 56.7084 83.9369 56.7084ZM96.5862 46.8804V48.1824H93.9962V56.6104H92.4002V48.1824H89.7962V46.8804H96.5862ZM100.918 46.8804V56.6104H99.3225V46.8804H100.918ZM112.128 56.6104H110.532L105.73 49.3444V56.6104H104.134V46.8664H105.73L110.532 54.1184V46.8664H112.128V56.6104ZM122.386 49.6804C122.134 49.195 121.784 48.831 121.336 48.5884C120.888 48.3364 120.37 48.2104 119.782 48.2104C119.138 48.2104 118.564 48.355 118.06 48.6444C117.556 48.9337 117.159 49.3444 116.87 49.8764C116.59 50.4084 116.45 51.0244 116.45 51.7244C116.45 52.4244 116.59 53.045 116.87 53.5864C117.159 54.1184 117.556 54.529 118.06 54.8184C118.564 55.1077 119.138 55.2524 119.782 55.2524C120.65 55.2524 121.354 55.0097 121.896 54.5244C122.437 54.039 122.768 53.381 122.89 52.5504H119.236V51.2764H124.598V52.5224C124.495 53.2784 124.224 53.9737 123.786 54.6084C123.356 55.243 122.792 55.7517 122.092 56.1344C121.401 56.5077 120.631 56.6944 119.782 56.6944C118.867 56.6944 118.032 56.4844 117.276 56.0644C116.52 55.635 115.918 55.0424 115.47 54.2864C115.031 53.5304 114.812 52.6764 114.812 51.7244C114.812 50.7724 115.031 49.9184 115.47 49.1624C115.918 48.4064 116.52 47.8184 117.276 47.3984C118.041 46.969 118.876 46.7544 119.782 46.7544C120.818 46.7544 121.737 47.011 122.54 47.5244C123.352 48.0284 123.94 48.747 124.304 49.6804H122.386Z" fill="#56565D"/>
<path d="M18 118.163C22.0785 114.564 27.4679 112.018 33.3742 113.276C36.6313 114.054 40.3526 116.967 43.1595 117.532C45.5518 118.018 47.0641 116.915 48.5023 114.906C49.9397 112.854 50.9867 110.243 52.3041 108.065C54.8208 103.053 58.0307 98.7563 64.551 97.0098C71.5453 95.1362 76.4193 102.239 82.6811 101.099C89.7456 99.6456 94.9907 86.5477 102.256 85.4003C105.798 84.8378 112.209 90.2813 115.549 89.0708C122.607 86.8081 128.697 74.2191 136.024 81.7702C139.672 85.4553 140.556 91.2582 144.897 94.3648C151.411 97.9713 154.662 89.6987 155.887 85.4003C157.225 80.2124 163.764 69.8563 171.513 76.4441C174.618 79.1335 174.761 80.0901 178.055 82.2718C184.442 85.7259 191.622 68.6762 199.496 69.9688" stroke="#4C57FF" stroke-width="2" stroke-miterlimit="10" stroke-linecap="round"/>
<path opacity="0.24" d="M200 154.389H18V117.841C22.1126 114.269 27.5436 111.735 33.4969 112.987C36.7804 113.761 40.5282 116.655 43.3639 117.215C45.7768 117.694 47.3024 116.604 48.7534 114.608C50.2045 112.568 51.2575 109.975 52.5841 107.809C55.1214 102.83 58.3956 98.5712 64.9303 96.8273C71.9755 94.9471 76.895 102.02 83.2049 100.886C90.3274 99.4421 95.6091 86.4345 102.939 85.2928C106.513 84.733 111.645 89.8593 115.012 88.6514C122.126 86.4049 129.596 74.1856 136.976 81.6837C140.649 85.3444 141.544 91.1043 145.922 94.1904C152.489 97.7701 155.789 86.8101 157.025 82.5381C158.376 77.3822 162.703 69.8655 170.513 76.4061C173.639 79.0798 175.648 79.231 178.973 81.3964C186.242 85.2771 192.302 67.4318 200 68.6723V154.389Z" fill="url(#paint0_linear_4001_2205)"/>
</g>
<defs>
<filter id="filter0_b_4001_2205" x="-28.7878" y="-28.1775" width="275.576" height="229.354" filterUnits="userSpaceOnUse" color-interpolation-filters="sRGB">
<feFlood flood-opacity="0" result="BackgroundImageFix"/>
<feGaussianBlur in="BackgroundImageFix" stdDeviation="14.3939"/>
<feComposite in2="SourceAlpha" operator="in" result="effect1_backgroundBlur_4001_2205"/>
<feBlend mode="normal" in="SourceGraphic" in2="effect1_backgroundBlur_4001_2205" result="shape"/>
</filter>
<linearGradient id="paint0_linear_4001_2205" x1="108.969" y1="87.6084" x2="108.994" y2="154.389" gradientUnits="userSpaceOnUse">
<stop stop-color="#4C57FF"/>
<stop offset="1" stop-color="#4C57FF" stop-opacity="0.11"/>
</linearGradient>
</defs>
</svg>
