<svg width="20" height="20" viewBox="0 0 20 20" fill="none" xmlns="http://www.w3.org/2000/svg">
<path d="M10.2058 3.08969C10.1907 3.05531 10.1419 3.05532 10.1267 3.08969L8.03219 7.84229C8.02784 7.85217 8.01995 7.86005 8.01008 7.86441L3.25672 9.9597C3.22235 9.97485 3.22235 10.0236 3.25672 10.0388L8.01008 12.1341C8.01995 12.1384 8.02784 12.1463 8.03219 12.1562L10.1267 16.9103C10.1419 16.9447 10.1907 16.9447 10.2058 16.9103L12.3019 12.1569C12.3062 12.1471 12.3141 12.1392 12.324 12.1348L17.0766 10.0395C17.111 10.0244 17.111 9.97562 17.0766 9.96046L12.324 7.86517C12.3141 7.86082 12.3062 7.85293 12.3019 7.84306L10.2058 3.08969Z" stroke="white" stroke-width="1.16667"/>
</svg>
