<svg width="140" height="35" viewBox="0 0 140 35" fill="none" xmlns="http://www.w3.org/2000/svg">
<g clip-path="url(#clip0_4001_2413)">
<path d="M36.785 12.1031H50.958V14.7001H45.386V29.3021H42.32V14.7001H36.772V12.1021H36.784L36.785 12.1031ZM50.353 16.8481H52.973V19.2521H53.022C53.109 18.9121 53.269 18.5841 53.504 18.2681C54.0065 17.5908 54.6866 17.0657 55.469 16.7511C55.8664 16.5936 56.2896 16.5112 56.717 16.5081C57.037 16.5081 57.273 16.5201 57.397 16.5331C57.52 16.5451 57.643 16.5691 57.779 16.5811V19.2271C57.5783 19.1919 57.3766 19.1636 57.174 19.1421C56.9729 19.1183 56.7705 19.1062 56.568 19.1061C56.098 19.1061 55.654 19.2031 55.234 19.3861C54.814 19.5671 54.455 19.8461 54.147 20.1991C53.8184 20.5937 53.5667 21.0466 53.405 21.534C53.22 22.0681 53.133 22.6741 53.133 23.3671V29.2901H50.341V16.8481H50.353ZM70.618 29.3031H67.875V27.5671H67.825C67.479 28.1991 66.973 28.6971 66.293 29.0731C65.613 29.4491 64.921 29.6431 64.217 29.6431C62.549 29.6431 61.337 29.243 60.597 28.4291C59.855 27.6161 59.484 26.3901 59.484 24.7511V16.8491H62.277V24.4841C62.277 25.5771 62.487 26.3541 62.92 26.8031C63.34 27.2521 63.945 27.4831 64.711 27.4831C65.304 27.4831 65.786 27.3981 66.181 27.2151C66.577 27.0331 66.898 26.8031 67.133 26.4991C67.38 26.208 67.553 25.8441 67.665 25.4311C67.775 25.0181 67.825 24.5691 67.825 24.0841V16.8611H70.618V29.3031ZM75.375 25.3101C75.462 26.1101 75.77 26.6701 76.302 26.9971C76.845 27.3131 77.488 27.4831 78.242 27.4831C78.502 27.4831 78.798 27.4581 79.132 27.4221C79.465 27.3851 79.786 27.3001 80.071 27.1921C80.367 27.0821 80.601 26.9121 80.799 26.6941C80.985 26.4741 81.071 26.1961 81.059 25.8441C81.0574 25.6807 81.0214 25.5195 80.9533 25.371C80.8853 25.2224 80.7867 25.0899 80.664 24.9821C80.416 24.7521 80.108 24.5821 79.724 24.4361C79.2962 24.2878 78.8585 24.1702 78.414 24.0841C77.92 23.9871 77.426 23.8771 76.92 23.7681C76.4102 23.6578 75.9068 23.5199 75.412 23.3551C74.9479 23.2063 74.5102 22.9853 74.115 22.7001C73.7299 22.4313 73.4159 22.073 73.2 21.6561C72.966 21.2311 72.854 20.7091 72.854 20.0781C72.854 19.3981 73.027 18.8401 73.361 18.3781C73.6979 17.9199 74.1328 17.5427 74.634 17.2741C75.1726 16.9893 75.7517 16.7887 76.351 16.6791C76.981 16.5701 77.587 16.5091 78.155 16.5091C78.81 16.5091 79.44 16.5821 80.034 16.7161C80.6091 16.8392 81.1572 17.0651 81.652 17.3831C82.134 17.6871 82.529 18.0871 82.851 18.5731C83.172 19.0581 83.37 19.6531 83.456 20.3451H80.54C80.404 19.6901 80.107 19.2411 79.626 19.0221C79.144 18.7921 78.588 18.6821 77.97 18.6821C77.772 18.6821 77.537 18.6941 77.266 18.7311C77.0049 18.7658 76.7479 18.8268 76.499 18.9131C76.2715 18.9968 76.065 19.1292 75.894 19.3011C75.811 19.3907 75.7464 19.4959 75.704 19.6105C75.6616 19.7251 75.6423 19.8469 75.647 19.9691C75.647 20.3091 75.77 20.5761 76.005 20.7821C76.24 20.9881 76.549 21.1581 76.932 21.3041C77.315 21.4381 77.748 21.5591 78.242 21.6561C78.736 21.7531 79.242 21.8621 79.762 21.9721C80.268 22.0811 80.762 22.2271 81.257 22.3841C81.751 22.5421 82.183 22.7611 82.567 23.0401C82.95 23.3191 83.259 23.659 83.493 24.0721C83.728 24.484 83.852 25.0061 83.852 25.6131C83.852 26.3531 83.679 26.9731 83.332 27.4951C82.987 28.0051 82.542 28.4291 81.998 28.7451C81.4285 29.0731 80.8115 29.3106 80.169 29.4491C79.5154 29.5928 78.8482 29.6659 78.179 29.6671C77.4295 29.6755 76.6822 29.5857 75.956 29.4001C75.276 29.2181 74.683 28.951 74.189 28.6C73.7008 28.2453 73.2994 27.7844 73.015 27.2521C72.731 26.7181 72.582 26.0741 72.558 25.3341H75.375V25.3101ZM84.593 16.85H86.706V13.1101H89.499V16.85H92.019V18.9001H89.5V25.5531C89.5 25.8431 89.512 26.0871 89.537 26.3051C89.561 26.5121 89.623 26.694 89.71 26.8391C89.8045 26.9914 89.948 27.1071 90.117 27.1671C90.303 27.2401 90.537 27.2771 90.859 27.2771C91.056 27.2771 91.254 27.2771 91.452 27.2641C91.65 27.2521 91.847 27.2281 92.045 27.1791V29.3031C91.736 29.3401 91.427 29.3641 91.143 29.4001C90.8436 29.4349 90.5424 29.4512 90.241 29.4491C89.5 29.4491 88.907 29.3761 88.461 29.2431C88.017 29.1091 87.658 28.9031 87.411 28.6361C87.151 28.3691 86.991 28.0411 86.892 27.6401C86.7957 27.1891 86.7422 26.7301 86.732 26.2691V18.9231H84.619V16.8471H84.594L84.593 16.85ZM93.996 16.85H96.641V18.5361H96.691C97.085 17.8081 97.629 17.2981 98.333 16.9831C99.0526 16.6631 99.8325 16.5015 100.62 16.5091C101.62 16.5091 102.485 16.6791 103.227 17.0311C103.968 17.3711 104.586 17.8451 105.08 18.4511C105.574 19.0581 105.933 19.7621 106.18 20.5641C106.432 21.3983 106.557 22.2657 106.551 23.1371C106.551 23.9741 106.44 24.7871 106.217 25.5651C106.012 26.3155 105.673 27.0226 105.216 27.6521C104.767 28.2589 104.183 28.7535 103.511 29.0971C102.819 29.4611 102.016 29.6431 101.077 29.6431C100.667 29.6426 100.257 29.6058 99.853 29.5331C99.4501 29.4604 99.0566 29.3427 98.68 29.1821C98.3059 29.0259 97.956 28.8172 97.641 28.5621C97.3301 28.314 97.0592 28.0196 96.838 27.6891H96.788V33.9041H93.996V16.8481V16.85ZM103.758 23.0881C103.759 22.5345 103.684 21.9835 103.536 21.4501C103.399 20.9446 103.173 20.4678 102.868 20.0421C102.579 19.637 102.203 19.301 101.769 19.0581C101.302 18.8059 100.779 18.6765 100.249 18.6821C99.075 18.6821 98.185 19.0821 97.592 19.8841C96.999 20.6851 96.702 21.7541 96.702 23.0881C96.702 23.7191 96.777 24.302 96.937 24.8361C97.097 25.3701 97.32 25.8321 97.641 26.2201C97.951 26.6091 98.321 26.9121 98.754 27.1301C99.186 27.3611 99.693 27.4701 100.261 27.4701C100.904 27.4701 101.435 27.3371 101.88 27.0821C102.311 26.8341 102.682 26.4944 102.967 26.0871C103.251 25.6741 103.462 25.2121 103.585 24.6911C103.699 24.1643 103.757 23.627 103.758 23.0881ZM108.688 12.1031H111.481V14.7011H108.688V12.1031ZM108.688 16.8491H111.481V29.3031H108.688V16.8491ZM113.977 12.1031H116.77V29.3031H113.977V12.1031ZM125.333 29.6431C124.319 29.6431 123.417 29.4731 122.627 29.1461C121.87 28.8354 121.184 28.3725 120.613 27.7861C120.058 27.1878 119.632 26.4809 119.364 25.7101C119.07 24.8592 118.924 23.9642 118.932 23.0641C118.932 22.1171 119.08 21.2441 119.364 20.4421C119.633 19.6716 120.058 18.9651 120.613 18.3671C121.156 17.784 121.836 17.3351 122.627 17.0071C123.417 16.6791 124.319 16.5091 125.333 16.5091C126.346 16.5091 127.248 16.6791 128.039 17.0071C128.83 17.3351 129.497 17.797 130.053 18.3671C130.608 18.9649 131.033 19.6715 131.301 20.4421C131.585 21.2431 131.733 22.1171 131.733 23.0641C131.733 24.0241 131.585 24.9091 131.301 25.7101C131.033 26.481 130.608 27.188 130.053 27.7861C129.509 28.3691 128.83 28.8181 128.039 29.1461C127.248 29.4731 126.346 29.6431 125.333 29.6431ZM125.333 27.4701C125.951 27.4701 126.494 27.3371 126.951 27.0821C127.396 26.8341 127.781 26.4897 128.076 26.0741C128.372 25.6621 128.582 25.1881 128.731 24.6661C128.867 24.1441 128.941 23.6101 128.941 23.0641C128.941 22.5301 128.867 22.0081 128.731 21.4741C128.604 20.9675 128.381 20.4897 128.076 20.0661C127.78 19.6544 127.396 19.3143 126.951 19.0711C126.494 18.8161 125.951 18.6821 125.333 18.6821C124.715 18.6821 124.171 18.8161 123.714 19.0711C123.272 19.318 122.889 19.6574 122.59 20.0661C122.289 20.4923 122.067 20.9692 121.935 21.4741C121.798 21.9931 121.727 22.5273 121.724 23.0641C121.724 23.6101 121.799 24.1441 121.935 24.6661C122.071 25.1881 122.293 25.6621 122.59 26.0741C122.886 26.4871 123.257 26.8271 123.714 27.0821C124.171 27.3491 124.715 27.4701 125.333 27.4701ZM132.549 16.85H134.662V13.1101H137.455V16.85H139.975V18.9001H137.455V25.5531C137.455 25.8431 137.467 26.0871 137.491 26.3051C137.516 26.5121 137.578 26.694 137.665 26.8391C137.759 26.9916 137.903 27.1073 138.072 27.1671C138.258 27.2401 138.492 27.2771 138.814 27.2771C139.011 27.2771 139.209 27.2771 139.407 27.2641C139.605 27.2521 139.802 27.2281 140 27.1791V29.3031C139.691 29.3401 139.382 29.3641 139.098 29.4001C138.799 29.4348 138.497 29.4512 138.196 29.4491C137.455 29.4491 136.861 29.3761 136.416 29.2431C135.972 29.1091 135.613 28.9031 135.366 28.6361C135.107 28.3691 134.946 28.0411 134.847 27.6401C134.751 27.1891 134.697 26.7301 134.687 26.2691V18.9231H132.574V16.8471H132.549V16.85Z" fill="white"/>
<path d="M33.523 12.1018H20.722L16.768 0.132812L12.8 12.1028L0 12.0898L10.367 19.4938L6.401 31.4498L16.768 24.0578L27.123 31.4498L23.169 19.4938L33.523 12.1018Z" fill="#B0B0B6"/>
<path d="M24.058 22.2016L23.168 19.4946L16.768 24.0586L24.058 22.2016Z" fill="#126849"/>
</g>
<defs>
<clipPath id="clip0_4001_2413">
<rect width="140" height="34" fill="white" transform="translate(0 0.132812)"/>
</clipPath>
</defs>
</svg>
