<svg width="31" height="24" viewBox="0 0 31 24" fill="none" xmlns="http://www.w3.org/2000/svg">
<path d="M27.1186 6.31655C27.1371 6.57183 27.1371 6.82717 27.1371 7.08245C27.1371 14.8689 21.1204 23.8407 10.1236 23.8407C6.73573 23.8407 3.58854 22.8742 0.941162 21.1966C1.42252 21.2513 1.8853 21.2695 2.38518 21.2695C5.1806 21.2695 7.75395 20.3395 9.80891 18.7531C7.18005 18.6983 4.97699 17.0025 4.21794 14.6683C4.58824 14.723 4.95847 14.7595 5.34728 14.7595C5.88414 14.7595 6.42106 14.6865 6.92088 14.5589C4.18096 14.0118 2.12595 11.6413 2.12595 8.77832V8.70541C2.92198 9.14306 3.84771 9.41658 4.82883 9.45301C3.21819 8.39534 2.16299 6.59007 2.16299 4.54771C2.16299 3.45361 2.45914 2.45067 2.97754 1.57537C5.92113 5.14948 10.3458 7.48356 15.3072 7.7389C15.2147 7.30125 15.1591 6.84541 15.1591 6.38952C15.1591 3.1436 17.825 0.499512 21.1388 0.499512C22.8605 0.499512 24.4156 1.21069 25.5079 2.35951C26.8593 2.10423 28.1552 1.61185 29.3031 0.937162C28.8587 2.30484 27.9146 3.45366 26.6742 4.18303C27.8776 4.05544 29.0439 3.72713 30.1176 3.2713C29.3032 4.43831 28.2849 5.47768 27.1186 6.31655Z" fill="white"/>
</svg>
